<mxfile host="app.diagrams.net" modified="2022-12-18T11:56:58.220Z" agent="5.0 (Windows NT 10.0; Win64; x64) AppleWebKit/537.36 (KHTML, like Gecko) Chrome/108.0.0.0 Safari/537.36" etag="VeRsIcaxBKcUQUwR7XDP" version="20.7.4" type="github">
  <diagram id="k_nAgRQBtg1MRaQyP6GL" name="Page-1">
    <mxGraphModel dx="2524" dy="1856" grid="1" gridSize="10" guides="1" tooltips="1" connect="1" arrows="1" fold="1" page="1" pageScale="1" pageWidth="850" pageHeight="1100" math="0" shadow="0">
      <root>
        <mxCell id="0" />
        <mxCell id="1" parent="0" />
        <mxCell id="WNrK1F0Bi6_NMc1Tgqoj-50" value="" style="rounded=1;whiteSpace=wrap;html=1;fontSize=15;" parent="1" vertex="1">
          <mxGeometry x="80" y="-10" width="160" height="300" as="geometry" />
        </mxCell>
        <mxCell id="WNrK1F0Bi6_NMc1Tgqoj-48" value="" style="rounded=1;whiteSpace=wrap;html=1;fontSize=15;" parent="1" vertex="1">
          <mxGeometry x="280" y="-10" width="160" height="300" as="geometry" />
        </mxCell>
        <mxCell id="WNrK1F0Bi6_NMc1Tgqoj-46" value="" style="rounded=1;whiteSpace=wrap;html=1;fontSize=15;" parent="1" vertex="1">
          <mxGeometry x="470" y="-10" width="160" height="300" as="geometry" />
        </mxCell>
        <mxCell id="WNrK1F0Bi6_NMc1Tgqoj-34" value="" style="rounded=1;whiteSpace=wrap;html=1;" parent="1" vertex="1">
          <mxGeometry x="690" y="-30" width="430" height="400" as="geometry" />
        </mxCell>
        <mxCell id="WNrK1F0Bi6_NMc1Tgqoj-1" value="" style="sketch=0;aspect=fixed;html=1;points=[];align=center;image;fontSize=12;image=img/lib/mscae/CustomDomain.svg;" parent="1" vertex="1">
          <mxGeometry x="-80" y="90" width="50" height="42" as="geometry" />
        </mxCell>
        <mxCell id="WNrK1F0Bi6_NMc1Tgqoj-2" value="" style="html=1;verticalLabelPosition=bottom;align=center;labelBackgroundColor=#ffffff;verticalAlign=top;strokeWidth=2;strokeColor=#0080F0;shadow=0;dashed=0;shape=mxgraph.ios7.icons.smartphone;" parent="1" vertex="1">
          <mxGeometry x="-65" y="200" width="20" height="40" as="geometry" />
        </mxCell>
        <mxCell id="WNrK1F0Bi6_NMc1Tgqoj-52" style="edgeStyle=orthogonalEdgeStyle;rounded=0;orthogonalLoop=1;jettySize=auto;html=1;exitX=0;exitY=0.25;exitDx=0;exitDy=0;entryX=1.04;entryY=0.5;entryDx=0;entryDy=0;entryPerimeter=0;fontSize=15;startArrow=classic;startFill=1;" parent="1" source="WNrK1F0Bi6_NMc1Tgqoj-3" target="WNrK1F0Bi6_NMc1Tgqoj-1" edge="1">
          <mxGeometry relative="1" as="geometry" />
        </mxCell>
        <mxCell id="WNrK1F0Bi6_NMc1Tgqoj-53" style="edgeStyle=orthogonalEdgeStyle;rounded=0;orthogonalLoop=1;jettySize=auto;html=1;exitX=0;exitY=0.75;exitDx=0;exitDy=0;entryX=1;entryY=0.575;entryDx=0;entryDy=0;entryPerimeter=0;fontSize=15;startArrow=classic;startFill=1;" parent="1" source="WNrK1F0Bi6_NMc1Tgqoj-3" target="WNrK1F0Bi6_NMc1Tgqoj-2" edge="1">
          <mxGeometry relative="1" as="geometry" />
        </mxCell>
        <mxCell id="WNrK1F0Bi6_NMc1Tgqoj-54" style="edgeStyle=orthogonalEdgeStyle;rounded=0;orthogonalLoop=1;jettySize=auto;html=1;exitX=1;exitY=0.25;exitDx=0;exitDy=0;entryX=0;entryY=0.5;entryDx=0;entryDy=0;fontSize=15;startArrow=classic;startFill=1;" parent="1" source="WNrK1F0Bi6_NMc1Tgqoj-3" target="WNrK1F0Bi6_NMc1Tgqoj-21" edge="1">
          <mxGeometry relative="1" as="geometry" />
        </mxCell>
        <mxCell id="WNrK1F0Bi6_NMc1Tgqoj-55" style="edgeStyle=orthogonalEdgeStyle;rounded=0;orthogonalLoop=1;jettySize=auto;html=1;exitX=1;exitY=0.5;exitDx=0;exitDy=0;entryX=0;entryY=0.5;entryDx=0;entryDy=0;fontSize=15;startArrow=classic;startFill=1;" parent="1" source="WNrK1F0Bi6_NMc1Tgqoj-3" target="WNrK1F0Bi6_NMc1Tgqoj-22" edge="1">
          <mxGeometry relative="1" as="geometry" />
        </mxCell>
        <mxCell id="WNrK1F0Bi6_NMc1Tgqoj-56" style="edgeStyle=orthogonalEdgeStyle;rounded=0;orthogonalLoop=1;jettySize=auto;html=1;exitX=1;exitY=0.75;exitDx=0;exitDy=0;entryX=0;entryY=0.5;entryDx=0;entryDy=0;fontSize=15;startArrow=classic;startFill=1;" parent="1" source="WNrK1F0Bi6_NMc1Tgqoj-3" target="WNrK1F0Bi6_NMc1Tgqoj-23" edge="1">
          <mxGeometry relative="1" as="geometry" />
        </mxCell>
        <mxCell id="WNrK1F0Bi6_NMc1Tgqoj-3" value="API Gateway" style="rounded=1;whiteSpace=wrap;html=1;" parent="1" vertex="1">
          <mxGeometry x="120" y="80" width="80" height="160" as="geometry" />
        </mxCell>
        <mxCell id="WNrK1F0Bi6_NMc1Tgqoj-57" style="edgeStyle=orthogonalEdgeStyle;rounded=0;orthogonalLoop=1;jettySize=auto;html=1;exitX=1;exitY=0.5;exitDx=0;exitDy=0;entryX=0;entryY=0.5;entryDx=0;entryDy=0;fontSize=15;startArrow=classic;startFill=1;" parent="1" source="WNrK1F0Bi6_NMc1Tgqoj-21" target="WNrK1F0Bi6_NMc1Tgqoj-24" edge="1">
          <mxGeometry relative="1" as="geometry" />
        </mxCell>
        <mxCell id="WNrK1F0Bi6_NMc1Tgqoj-21" value="BFF" style="shape=step;perimeter=stepPerimeter;whiteSpace=wrap;html=1;fixedSize=1;" parent="1" vertex="1">
          <mxGeometry x="320" y="80" width="80" height="30" as="geometry" />
        </mxCell>
        <mxCell id="WNrK1F0Bi6_NMc1Tgqoj-58" style="edgeStyle=orthogonalEdgeStyle;rounded=0;orthogonalLoop=1;jettySize=auto;html=1;exitX=1;exitY=0.5;exitDx=0;exitDy=0;entryX=0;entryY=0.5;entryDx=0;entryDy=0;fontSize=15;startArrow=classic;startFill=1;" parent="1" source="WNrK1F0Bi6_NMc1Tgqoj-22" target="WNrK1F0Bi6_NMc1Tgqoj-25" edge="1">
          <mxGeometry relative="1" as="geometry" />
        </mxCell>
        <mxCell id="WNrK1F0Bi6_NMc1Tgqoj-22" value="BFF" style="shape=step;perimeter=stepPerimeter;whiteSpace=wrap;html=1;fixedSize=1;" parent="1" vertex="1">
          <mxGeometry x="320" y="145" width="80" height="30" as="geometry" />
        </mxCell>
        <mxCell id="WNrK1F0Bi6_NMc1Tgqoj-59" style="edgeStyle=orthogonalEdgeStyle;rounded=0;orthogonalLoop=1;jettySize=auto;html=1;exitX=1;exitY=0.5;exitDx=0;exitDy=0;fontSize=15;startArrow=classic;startFill=1;" parent="1" source="WNrK1F0Bi6_NMc1Tgqoj-23" target="WNrK1F0Bi6_NMc1Tgqoj-26" edge="1">
          <mxGeometry relative="1" as="geometry" />
        </mxCell>
        <mxCell id="WNrK1F0Bi6_NMc1Tgqoj-23" value="BFF" style="shape=step;perimeter=stepPerimeter;whiteSpace=wrap;html=1;fixedSize=1;" parent="1" vertex="1">
          <mxGeometry x="320" y="210" width="80" height="30" as="geometry" />
        </mxCell>
        <mxCell id="WNrK1F0Bi6_NMc1Tgqoj-60" style="edgeStyle=orthogonalEdgeStyle;rounded=0;orthogonalLoop=1;jettySize=auto;html=1;exitX=1;exitY=0.5;exitDx=0;exitDy=0;entryX=0;entryY=0.25;entryDx=0;entryDy=0;fontSize=15;startArrow=classic;startFill=1;" parent="1" source="WNrK1F0Bi6_NMc1Tgqoj-24" target="WNrK1F0Bi6_NMc1Tgqoj-27" edge="1">
          <mxGeometry relative="1" as="geometry" />
        </mxCell>
        <mxCell id="WNrK1F0Bi6_NMc1Tgqoj-24" value="Broker" style="rounded=1;whiteSpace=wrap;html=1;" parent="1" vertex="1">
          <mxGeometry x="510" y="80" width="80" height="30" as="geometry" />
        </mxCell>
        <mxCell id="WNrK1F0Bi6_NMc1Tgqoj-61" style="edgeStyle=orthogonalEdgeStyle;rounded=0;orthogonalLoop=1;jettySize=auto;html=1;exitX=1;exitY=0.5;exitDx=0;exitDy=0;entryX=0;entryY=0.5;entryDx=0;entryDy=0;fontSize=15;startArrow=classic;startFill=1;" parent="1" source="WNrK1F0Bi6_NMc1Tgqoj-25" target="WNrK1F0Bi6_NMc1Tgqoj-27" edge="1">
          <mxGeometry relative="1" as="geometry" />
        </mxCell>
        <mxCell id="WNrK1F0Bi6_NMc1Tgqoj-25" value="Broker" style="rounded=1;whiteSpace=wrap;html=1;" parent="1" vertex="1">
          <mxGeometry x="510" y="145" width="80" height="30" as="geometry" />
        </mxCell>
        <mxCell id="WNrK1F0Bi6_NMc1Tgqoj-62" style="edgeStyle=orthogonalEdgeStyle;rounded=0;orthogonalLoop=1;jettySize=auto;html=1;exitX=1;exitY=0.5;exitDx=0;exitDy=0;entryX=0;entryY=0.83;entryDx=0;entryDy=0;entryPerimeter=0;fontSize=15;startArrow=classic;startFill=1;" parent="1" source="WNrK1F0Bi6_NMc1Tgqoj-26" target="WNrK1F0Bi6_NMc1Tgqoj-27" edge="1">
          <mxGeometry relative="1" as="geometry" />
        </mxCell>
        <mxCell id="WNrK1F0Bi6_NMc1Tgqoj-26" value="Broker" style="rounded=1;whiteSpace=wrap;html=1;" parent="1" vertex="1">
          <mxGeometry x="510" y="210" width="80" height="30" as="geometry" />
        </mxCell>
        <mxCell id="WNrK1F0Bi6_NMc1Tgqoj-36" style="edgeStyle=orthogonalEdgeStyle;rounded=0;orthogonalLoop=1;jettySize=auto;html=1;exitX=1;exitY=0.5;exitDx=0;exitDy=0;entryX=0;entryY=0.5;entryDx=0;entryDy=0;fontSize=15;" parent="1" source="WNrK1F0Bi6_NMc1Tgqoj-27" target="WNrK1F0Bi6_NMc1Tgqoj-28" edge="1">
          <mxGeometry relative="1" as="geometry" />
        </mxCell>
        <mxCell id="WNrK1F0Bi6_NMc1Tgqoj-37" style="edgeStyle=orthogonalEdgeStyle;rounded=0;orthogonalLoop=1;jettySize=auto;html=1;exitX=1;exitY=0.5;exitDx=0;exitDy=0;entryX=0;entryY=0.5;entryDx=0;entryDy=0;fontSize=15;" parent="1" source="WNrK1F0Bi6_NMc1Tgqoj-27" target="WNrK1F0Bi6_NMc1Tgqoj-29" edge="1">
          <mxGeometry relative="1" as="geometry" />
        </mxCell>
        <mxCell id="WNrK1F0Bi6_NMc1Tgqoj-38" style="edgeStyle=orthogonalEdgeStyle;rounded=0;orthogonalLoop=1;jettySize=auto;html=1;exitX=1;exitY=0.5;exitDx=0;exitDy=0;entryX=0;entryY=0.5;entryDx=0;entryDy=0;fontSize=15;startArrow=classic;startFill=1;" parent="1" source="WNrK1F0Bi6_NMc1Tgqoj-27" target="WNrK1F0Bi6_NMc1Tgqoj-30" edge="1">
          <mxGeometry relative="1" as="geometry" />
        </mxCell>
        <mxCell id="WNrK1F0Bi6_NMc1Tgqoj-45" style="edgeStyle=orthogonalEdgeStyle;rounded=0;orthogonalLoop=1;jettySize=auto;html=1;exitX=0.5;exitY=1;exitDx=0;exitDy=0;entryX=0.588;entryY=0.994;entryDx=0;entryDy=0;entryPerimeter=0;fontSize=15;" parent="1" source="WNrK1F0Bi6_NMc1Tgqoj-27" target="WNrK1F0Bi6_NMc1Tgqoj-31" edge="1">
          <mxGeometry relative="1" as="geometry">
            <Array as="points">
              <mxPoint x="780" y="430" />
              <mxPoint x="1207" y="430" />
            </Array>
          </mxGeometry>
        </mxCell>
        <mxCell id="WNrK1F0Bi6_NMc1Tgqoj-27" value="Orchestrator" style="rounded=0;whiteSpace=wrap;html=1;" parent="1" vertex="1">
          <mxGeometry x="720" y="115" width="120" height="100" as="geometry" />
        </mxCell>
        <mxCell id="WNrK1F0Bi6_NMc1Tgqoj-28" value="Order" style="rounded=0;whiteSpace=wrap;html=1;" parent="1" vertex="1">
          <mxGeometry x="950" y="40" width="120" height="60" as="geometry" />
        </mxCell>
        <mxCell id="WNrK1F0Bi6_NMc1Tgqoj-29" value="Billing" style="rounded=0;whiteSpace=wrap;html=1;" parent="1" vertex="1">
          <mxGeometry x="950" y="160" width="120" height="60" as="geometry" />
        </mxCell>
        <mxCell id="WNrK1F0Bi6_NMc1Tgqoj-30" value="Email" style="rounded=0;whiteSpace=wrap;html=1;" parent="1" vertex="1">
          <mxGeometry x="950" y="280" width="120" height="60" as="geometry" />
        </mxCell>
        <mxCell id="WNrK1F0Bi6_NMc1Tgqoj-65" style="edgeStyle=orthogonalEdgeStyle;rounded=0;orthogonalLoop=1;jettySize=auto;html=1;exitX=1;exitY=0.5;exitDx=0;exitDy=0;fontSize=15;startArrow=classic;startFill=1;" parent="1" source="WNrK1F0Bi6_NMc1Tgqoj-31" target="WNrK1F0Bi6_NMc1Tgqoj-32" edge="1">
          <mxGeometry relative="1" as="geometry" />
        </mxCell>
        <mxCell id="WNrK1F0Bi6_NMc1Tgqoj-31" value="API Gateway" style="rounded=1;whiteSpace=wrap;html=1;" parent="1" vertex="1">
          <mxGeometry x="1160" y="90" width="80" height="160" as="geometry" />
        </mxCell>
        <mxCell id="WNrK1F0Bi6_NMc1Tgqoj-32" value="" style="sketch=0;outlineConnect=0;fontColor=#232F3E;gradientColor=none;fillColor=#3F8624;strokeColor=none;dashed=0;verticalLabelPosition=bottom;verticalAlign=top;align=center;html=1;fontSize=12;fontStyle=0;aspect=fixed;pointerEvents=1;shape=mxgraph.aws4.bank;" parent="1" vertex="1">
          <mxGeometry x="1340" y="131" width="78" height="78" as="geometry" />
        </mxCell>
        <mxCell id="WNrK1F0Bi6_NMc1Tgqoj-35" value="Saga Pattern" style="text;html=1;strokeColor=none;fillColor=none;align=center;verticalAlign=middle;whiteSpace=wrap;rounded=0;fontSize=15;fontStyle=1" parent="1" vertex="1">
          <mxGeometry x="730" y="-10" width="110" height="30" as="geometry" />
        </mxCell>
        <mxCell id="WNrK1F0Bi6_NMc1Tgqoj-42" value="" style="strokeWidth=2;html=1;shape=mxgraph.flowchart.database;whiteSpace=wrap;fontSize=15;" parent="1" vertex="1">
          <mxGeometry x="1040" y="70" width="20" height="20" as="geometry" />
        </mxCell>
        <mxCell id="WNrK1F0Bi6_NMc1Tgqoj-43" value="" style="strokeWidth=2;html=1;shape=mxgraph.flowchart.database;whiteSpace=wrap;fontSize=15;" parent="1" vertex="1">
          <mxGeometry x="1040" y="195" width="20" height="20" as="geometry" />
        </mxCell>
        <mxCell id="WNrK1F0Bi6_NMc1Tgqoj-44" value="" style="strokeWidth=2;html=1;shape=mxgraph.flowchart.database;whiteSpace=wrap;fontSize=15;" parent="1" vertex="1">
          <mxGeometry x="1040" y="310" width="20" height="20" as="geometry" />
        </mxCell>
        <mxCell id="WNrK1F0Bi6_NMc1Tgqoj-47" value="Message Broker&lt;br&gt;&lt;font style=&quot;font-size: 11px;&quot;&gt;Publish-subscriber Pattern&lt;/font&gt;" style="text;html=1;strokeColor=none;fillColor=none;align=center;verticalAlign=middle;whiteSpace=wrap;rounded=0;fontSize=15;fontStyle=1" parent="1" vertex="1">
          <mxGeometry x="442" width="212.5" height="40" as="geometry" />
        </mxCell>
        <mxCell id="WNrK1F0Bi6_NMc1Tgqoj-49" value="BFF Pattern" style="text;html=1;strokeColor=none;fillColor=none;align=center;verticalAlign=middle;whiteSpace=wrap;rounded=0;fontSize=15;fontStyle=1" parent="1" vertex="1">
          <mxGeometry x="297.5" width="125" height="30" as="geometry" />
        </mxCell>
        <mxCell id="WNrK1F0Bi6_NMc1Tgqoj-51" value="API Gateway&lt;br&gt;Pattern" style="text;html=1;strokeColor=none;fillColor=none;align=center;verticalAlign=middle;whiteSpace=wrap;rounded=0;fontSize=15;fontStyle=1" parent="1" vertex="1">
          <mxGeometry x="94.5" width="125" height="30" as="geometry" />
        </mxCell>
        <mxCell id="WNrK1F0Bi6_NMc1Tgqoj-66" value="Bank" style="text;html=1;strokeColor=none;fillColor=none;align=center;verticalAlign=middle;whiteSpace=wrap;rounded=0;fontSize=15;" parent="1" vertex="1">
          <mxGeometry x="1349" y="210" width="60" height="30" as="geometry" />
        </mxCell>
        <mxCell id="R4RWfNrEiwchSPgBLhXS-1" value="" style="sketch=0;html=1;aspect=fixed;strokeColor=none;shadow=0;align=center;verticalAlign=top;fillColor=#3B8DF1;shape=mxgraph.gcp2.gear" vertex="1" parent="1">
          <mxGeometry x="950" y="40" width="30" height="30" as="geometry" />
        </mxCell>
        <mxCell id="R4RWfNrEiwchSPgBLhXS-2" value="" style="sketch=0;html=1;aspect=fixed;strokeColor=none;shadow=0;align=center;verticalAlign=top;fillColor=#3B8DF1;shape=mxgraph.gcp2.gear" vertex="1" parent="1">
          <mxGeometry x="950" y="160" width="30" height="30" as="geometry" />
        </mxCell>
        <mxCell id="R4RWfNrEiwchSPgBLhXS-3" value="" style="sketch=0;html=1;aspect=fixed;strokeColor=none;shadow=0;align=center;verticalAlign=top;fillColor=#3B8DF1;shape=mxgraph.gcp2.gear" vertex="1" parent="1">
          <mxGeometry x="950" y="280" width="30" height="30" as="geometry" />
        </mxCell>
      </root>
    </mxGraphModel>
  </diagram>
</mxfile>
